<svg width="20" height="19" viewBox="0 0 20 19" fill="none" xmlns="http://www.w3.org/2000/svg">
<path fill-rule="evenodd" clip-rule="evenodd" d="M9.04296 0.0199037C8.98195 0.0346747 8.68244 0.0865947 8.37737 0.135339C7.56195 0.265768 6.51475 0.617098 5.69718 1.0346C3.13429 2.34324 1.34414 4.70056 0.714125 7.5962C0.52384 8.47087 0.52384 10.4084 0.714125 11.2831C1.13515 13.2179 2.02268 14.8406 3.39187 16.1783C4.73104 17.4868 6.28342 18.3119 8.17267 18.7193C9.03239 18.9046 10.9832 18.9032 11.8503 18.7164C15.2066 17.9936 17.8898 15.6454 18.9547 12.4992C19.3343 11.3777 19.4286 10.7693 19.4286 9.43963C19.4286 8.54709 19.3932 8.05758 19.2965 7.61038C18.4753 3.81237 15.6735 0.996345 11.8902 0.166285C11.4211 0.0633308 9.31208 -0.045089 9.04296 0.0199037ZM11.9477 1.71333C12.7632 1.92264 13.829 2.40093 14.5117 2.86385C15.1197 3.27626 15.9134 4.03106 16.3709 4.63217C16.8873 5.31053 17.509 6.601 17.7442 7.48247C17.92 8.14067 17.9414 8.35359 17.9414 9.43963C17.9414 10.5257 17.92 10.7386 17.7442 11.3968C17.509 12.2783 16.8873 13.5687 16.3709 14.2471C15.9134 14.8482 15.1197 15.603 14.5117 16.0154C13.8394 16.4713 12.7718 16.9535 11.9477 17.1732C11.3069 17.3441 11.0858 17.366 10.0044 17.366C8.92293 17.366 8.70189 17.3441 8.06107 17.1732C7.23699 16.9535 6.16931 16.4713 5.49706 16.0154C4.88901 15.603 4.09533 14.8482 3.63785 14.2471C3.12149 13.5687 2.49976 12.2783 2.26451 11.3968C2.08879 10.7386 2.06735 10.5257 2.06735 9.43963C2.06735 8.35359 2.08879 8.14067 2.26451 7.48247C2.49976 6.601 3.12149 5.31053 3.63785 4.63217C4.87555 3.00602 6.80569 1.864 8.86436 1.53985C9.62809 1.41954 11.1331 1.50425 11.9477 1.71333ZM8.89505 4.74893C7.55123 5.05093 6.23654 6.08771 5.65769 7.30197C5.27269 8.1095 5.16434 8.57892 5.16434 9.43963C5.16434 10.3003 5.27269 10.7698 5.65769 11.5773C6.25199 12.824 7.5709 13.844 8.96901 14.1382C10.3765 14.4344 11.9387 14.0309 13.0833 13.0753C13.4603 12.7606 13.5884 12.4881 13.5229 12.1398C13.4261 11.6243 12.8358 11.4208 12.3859 11.7476C12.2601 11.839 12.0004 12.0269 11.8088 12.1653C9.86371 13.5695 7.06372 12.3511 6.66118 9.92546C6.33645 7.96814 7.95605 6.11614 9.99247 6.11614C10.6975 6.11614 11.7392 6.51703 12.1168 6.9338C12.3142 7.1516 12.6187 7.29783 12.8749 7.29783C13.3477 7.29783 13.6788 6.74266 13.4849 6.27508C13.306 5.84377 12.3539 5.19893 11.4465 4.89443C10.709 4.64701 9.6241 4.58512 8.89505 4.74893Z" fill="#767676"/>
</svg>
