<svg width="8" height="16" viewBox="0 0 8 16" fill="none" xmlns="http://www.w3.org/2000/svg">
<path d="M4.93396 0.0305567C4.21945 0.114944 3.44813 0.449486 2.92196 0.910609C2.53929 1.24214 2.23137 1.73038 2.07591 2.24274L1.99519 2.51399L2.00117 3.84613L2.01014 5.18128H1.10728C0.189473 5.18128 0.123702 5.1873 0.0399934 5.29882C-0.0138193 5.37115 -0.0138193 8.03843 0.042983 8.11077C0.117723 8.21324 0.234317 8.22529 1.08037 8.22529H1.91447V11.7214C1.91447 14.2169 1.92344 15.2356 1.94736 15.2868C1.96529 15.329 2.01313 15.3772 2.05498 15.3953C2.10281 15.4194 2.58414 15.4285 3.60359 15.4285H5.08045L5.16416 15.3561L5.24787 15.2838L5.25684 11.7696L5.26282 8.25543H6.23742C7.31966 8.25543 7.35553 8.24941 7.40935 8.06857C7.46017 7.90281 7.72624 5.44348 7.70233 5.35307C7.66346 5.19032 7.59171 5.18128 6.36897 5.18128H5.26282V4.29821C5.26282 3.77078 5.27477 3.37295 5.2957 3.30363C5.34055 3.14088 5.50796 2.96607 5.67239 2.90881C5.786 2.86963 5.96238 2.86059 6.64102 2.86059C7.14327 2.86059 7.50501 2.84853 7.55285 2.83045C7.71428 2.76716 7.71129 2.79127 7.71428 1.43804C7.71428 0.74786 7.70531 0.160153 7.69635 0.133028C7.64552 0.00343132 7.56779 -0.0025959 6.33309 0.000417709C5.68734 0.00343132 5.05653 0.0154867 4.93396 0.0305567Z" fill="#112A46"/>
</svg>
