<svg width="16" height="16" viewBox="0 0 16 16" fill="none" xmlns="http://www.w3.org/2000/svg">
<path fill-rule="evenodd" clip-rule="evenodd" d="M3.66167 0.0449736C1.9442 0.28604 0.56119 1.52151 0.139356 3.19391C0.0971724 3.3506 0.051976 3.60071 0.0338974 3.75137C-0.0112991 4.12503 -0.0112991 11.3028 0.0338974 11.6764C0.241801 13.4332 1.49224 14.8615 3.19464 15.2894C3.35132 15.3316 3.60442 15.3768 3.75206 15.3949C4.12569 15.4401 11.3029 15.4401 11.6765 15.3949C13.2584 15.2081 14.5811 14.1745 15.1566 12.6799C15.25 12.4358 15.3585 11.9778 15.3947 11.6764C15.4399 11.3028 15.4399 4.12503 15.3947 3.75137C15.2079 2.16937 14.1744 0.846521 12.6799 0.270974C12.4358 0.17756 11.9778 0.0690803 11.6765 0.0329203C11.2637 -0.0183064 4.02023 -0.00625305 3.66167 0.0449736ZM12.5835 2.00967C12.9721 2.13924 13.2855 2.45263 13.4181 2.84436C13.4814 3.03119 13.4844 3.39881 13.4241 3.59769C13.177 4.41431 12.2038 4.76386 11.4957 4.29076C11.0799 4.01655 10.86 3.52537 10.9353 3.04625C11.0136 2.56412 11.3421 2.16937 11.791 2.01569C11.9959 1.94639 12.3846 1.94036 12.5835 2.00967ZM8.37717 3.54044C9.27206 3.68809 10.0615 4.09188 10.6973 4.73071C11.5078 5.53828 11.9326 6.56583 11.9326 7.71391C11.9326 8.86199 11.5078 9.88954 10.6973 10.6971C9.88974 11.5077 8.86228 11.9326 7.71429 11.9326C6.5663 11.9326 5.53883 11.5077 4.73132 10.6971C3.92079 9.88954 3.49595 8.86199 3.49595 7.71391C3.49595 6.56583 3.92079 5.53828 4.73132 4.73071C5.35503 4.10394 6.14747 3.69412 7.02127 3.54044C7.33162 3.48921 8.06381 3.4862 8.37717 3.54044ZM12.0123 2.90735C11.8374 3.00076 11.7711 3.2569 11.8766 3.41962C12.0817 3.733 12.5582 3.59439 12.5582 3.22375C12.5582 2.95255 12.2506 2.77778 12.0123 2.90735ZM4.39798 7.71278C4.39798 6.11572 5.55803 4.72958 7.12785 4.44633C8.54099 4.1902 9.99331 4.91038 10.6562 6.19105C11.6806 8.18286 10.4814 10.5965 8.27283 10.9823C6.26309 11.3318 4.39798 9.75884 4.39798 7.71278Z" fill="#112A46"/>
</svg>
