<svg width="59" height="22" viewBox="0 0 59 22" fill="none" xmlns="http://www.w3.org/2000/svg">
<path d="M0.667 21L8.091 0.699999H12.267L19.691 21H15.747L14.123 16.302H6.206L4.553 21H0.667ZM7.221 13.402H13.108L10.15 4.963L7.221 13.402ZM22.306 21V0.699999H30.455C32.5623 0.699999 34.167 1.193 35.269 2.179C36.3903 3.14567 36.951 4.39267 36.951 5.92C36.951 7.196 36.603 8.22067 35.907 8.994C35.2303 9.748 34.399 10.2603 33.413 10.531C34.573 10.763 35.53 11.343 36.284 12.271C37.038 13.1797 37.415 14.243 37.415 15.461C37.415 17.0657 36.835 18.39 35.675 19.434C34.515 20.478 32.8717 21 30.745 21H22.306ZM26.018 9.226H29.904C30.948 9.226 31.7503 8.98433 32.311 8.501C32.8717 8.01767 33.152 7.33133 33.152 6.442C33.152 5.59133 32.8717 4.92433 32.311 4.441C31.7697 3.93833 30.948 3.687 29.846 3.687H26.018V9.226ZM26.018 17.984H30.165C31.267 17.984 32.1177 17.7327 32.717 17.23C33.3357 16.708 33.645 15.983 33.645 15.055C33.645 14.1077 33.326 13.3633 32.688 12.822C32.05 12.2807 31.1897 12.01 30.107 12.01H26.018V17.984ZM49.7939 21.348C47.7446 21.348 45.9852 20.913 44.5159 20.043C43.0466 19.1537 41.9156 17.926 41.1229 16.36C40.3302 14.7747 39.9339 12.9477 39.9339 10.879C39.9339 8.81033 40.3302 6.98333 41.1229 5.398C41.9156 3.81267 43.0466 2.57533 44.5159 1.686C45.9852 0.796666 47.7446 0.352 49.7939 0.352C52.2299 0.352 54.2212 0.960999 55.7679 2.179C57.3339 3.37767 58.3102 5.06933 58.6969 7.254H54.6079C54.3566 6.152 53.8152 5.29167 52.9839 4.673C52.1719 4.035 51.0892 3.716 49.7359 3.716C47.8606 3.716 46.3912 4.354 45.3279 5.63C44.2646 6.906 43.7329 8.65567 43.7329 10.879C43.7329 13.1023 44.2646 14.852 45.3279 16.128C46.3912 17.3847 47.8606 18.013 49.7359 18.013C51.0892 18.013 52.1719 17.723 52.9839 17.143C53.8152 16.5437 54.3566 15.722 54.6079 14.678H58.6969C58.3102 16.766 57.3339 18.3997 55.7679 19.579C54.2212 20.7583 52.2299 21.348 49.7939 21.348Z" fill="white"/>
</svg>
