<svg width="48" height="48" viewBox="0 0 48 48" fill="none" xmlns="http://www.w3.org/2000/svg">
<path d="M24.357 31C22.8279 31 21.5152 30.7099 20.4189 30.1298C19.3225 29.5368 18.4786 28.7182 17.8872 27.674C17.2957 26.6169 17 25.3987 17 24.0193C17 22.64 17.2957 21.4217 17.8872 20.3646C18.4786 19.3076 19.3225 18.4825 20.4189 17.8895C21.5152 17.2965 22.8279 17 24.357 17C26.1747 17 27.6605 17.4061 28.8145 18.2182C29.983 19.0175 30.7115 20.1455 31 21.6022H27.949C27.7615 20.8674 27.3575 20.2937 26.7372 19.8812C26.1314 19.4558 25.3235 19.2431 24.3138 19.2431C22.9145 19.2431 21.8181 19.6685 21.0247 20.5193C20.2313 21.3702 19.8346 22.5368 19.8346 24.0193C19.8346 25.5018 20.2313 26.6685 21.0247 27.5193C21.8181 28.3573 22.9145 28.7762 24.3138 28.7762C25.3235 28.7762 26.1314 28.5829 26.7372 28.1961C27.3575 27.7965 27.7615 27.2486 27.949 26.5525H31C30.7115 27.9448 29.983 29.0341 28.8145 29.8204C27.6605 30.6068 26.1747 31 24.357 31Z" fill="white"/>
<path fill-rule="evenodd" clip-rule="evenodd" d="M22.2021 1.09175C20.9471 1.69118 19.92 2.26217 19.92 2.36067C19.92 2.57298 19.8508 2.53609 25.0693 5.10593C31.7216 8.38155 36.1677 10.6284 36.4642 10.8641C36.6683 11.0261 36.7612 13.4928 36.8153 20.178C36.8558 25.1796 36.9691 29.3133 37.0667 29.3639C37.2909 29.48 40.6765 27.9233 41.2556 27.4378C41.6626 27.0966 41.6872 26.5541 41.6872 17.8688V8.66155L41.0435 8.23988C40.6896 8.00796 38.5366 6.90738 36.2594 5.79405C33.9821 4.68053 31.8229 3.5933 31.4613 3.37766C30.636 2.88555 24.7762 -0.00235315 24.6082 1.43901e-06C24.5401 0.00117873 23.4571 0.492307 22.2021 1.09175ZM9.15349 7.37634C4.58356 9.58082 0.668989 11.5604 0.45436 11.7757C0.15079 12.08 0.0597426 12.6008 0.0452312 14.1162C0.0349327 15.1883 0.129023 16.1185 0.254243 16.1835C0.379696 16.2484 1.72224 15.6925 3.23798 14.9481C7.13734 13.0332 16.7259 8.48496 17.4325 8.21496C17.9771 8.00698 18.5094 8.22988 24.063 10.9924C27.3843 12.6445 31.1971 14.5519 32.5361 15.2314C33.8751 15.9107 35.0601 16.4203 35.1692 16.3638C35.2783 16.3073 35.3677 15.2589 35.3677 14.0339V11.8071L32.9686 10.5876C23.3396 5.6934 18.4635 3.33626 17.9991 3.35117C17.704 3.36059 13.7234 5.17205 9.15349 7.37634ZM11.0259 12.8313C0.955005 17.6688 0.63271 17.8301 0.317906 18.1864C-0.105969 18.666 -0.105969 35.4948 0.317906 35.9459C0.646051 36.2954 4.08081 38.0641 4.43096 38.0641C4.55501 38.0641 4.72025 37.9244 4.79843 37.7537C4.8766 37.583 4.9405 33.6125 4.9405 28.9304V20.4174L7.10551 19.36C8.29638 18.7784 12.1932 16.9124 15.7656 15.2136C19.3379 13.5146 22.2606 12.0119 22.2606 11.8744C22.2606 11.612 18.4469 9.6077 17.9713 9.61987C17.8201 9.62379 14.6948 11.0689 11.0259 12.8313ZM43.2635 9.85807C43.202 9.99307 43.1435 14.0591 43.1336 18.8936C43.1238 23.7284 43.0585 27.8354 42.9883 28.0204C42.8813 28.3031 36.2922 31.5864 28.7254 35.1273C27.6801 35.6167 26.8247 36.14 26.8247 36.2903C26.8247 36.5167 30.7397 38.6527 31.1545 38.6527C31.2251 38.6527 32.5972 38.0266 34.2033 37.2612C35.8091 36.4959 39.3876 34.8138 42.1553 33.5231C44.923 32.2326 47.3469 31.0205 47.5414 30.83C47.8442 30.5335 47.906 29.1371 47.9688 21.1713C48.0385 12.3539 48.0195 11.8428 47.6149 11.5544C46.838 11.0004 44.0453 9.6128 43.7073 9.6128C43.525 9.6128 43.3253 9.72327 43.2635 9.85807ZM8.43494 20.1928L6.46186 21.1377L6.31487 23.8616C6.11148 27.6315 6.08269 35.0296 6.26268 37.3077L6.41224 39.2002L8.30949 40.1357C9.35291 40.6502 13.2911 42.6112 17.0608 44.4933C20.8307 46.3752 24.0958 47.9516 24.3165 47.9961C24.8322 48.0999 28.9312 46.0869 28.9312 45.7298C28.9312 45.5815 25.1343 43.5972 20.4937 41.3205C15.8531 39.0438 11.7719 37.0245 11.4241 36.8332L10.7919 36.4853V27.966C10.7919 23.2804 10.7055 19.402 10.6 19.3473C10.4944 19.2925 9.52002 19.673 8.43494 20.1928ZM12.6643 33.6447C12.6643 35.7688 12.6943 35.9122 13.1909 36.1686C13.4805 36.3184 15.9294 37.5261 18.6327 38.8527C21.3361 40.1791 25.2263 42.1047 27.2778 43.1317L31.0079 44.9991L31.8419 44.6063C42.0113 39.8157 47.7593 37.0027 47.8693 36.7626C48.1118 36.2326 47.7274 32.5471 47.436 32.6105C47.2905 32.6422 43.569 34.3756 39.1662 36.4626L31.1612 40.2568L22.1759 35.8249C17.234 33.3871 13.072 31.3927 12.9274 31.3927C12.7479 31.3927 12.6643 32.1085 12.6643 33.6447Z" fill="#F5CD76"/>
</svg>
