<svg width="116" height="48" viewBox="0 0 116 48" fill="none" xmlns="http://www.w3.org/2000/svg">
<g clip-path="url(#clip0_1_18)">
<path d="M24.357 31C22.8279 31 21.5152 30.7099 20.4189 30.1298C19.3225 29.5368 18.4786 28.7182 17.8872 27.674C17.2957 26.6169 17 25.3987 17 24.0193C17 22.64 17.2957 21.4217 17.8872 20.3646C18.4786 19.3076 19.3225 18.4825 20.4189 17.8895C21.5152 17.2965 22.8279 17 24.357 17C26.1747 17 27.6605 17.4061 28.8145 18.2182C29.983 19.0175 30.7115 20.1455 31 21.6022H27.949C27.7615 20.8674 27.3575 20.2937 26.7372 19.8812C26.1314 19.4558 25.3235 19.2431 24.3138 19.2431C22.9145 19.2431 21.8181 19.6685 21.0247 20.5193C20.2313 21.3702 19.8346 22.5368 19.8346 24.0193C19.8346 25.5018 20.2313 26.6685 21.0247 27.5193C21.8181 28.3573 22.9145 28.7762 24.3138 28.7762C25.3235 28.7762 26.1314 28.5829 26.7372 28.1961C27.3575 27.7965 27.7615 27.2486 27.949 26.5525H31C30.7115 27.9448 29.983 29.0341 28.8145 29.8204C27.6605 30.6068 26.1747 31 24.357 31Z" fill="white"/>
<path fill-rule="evenodd" clip-rule="evenodd" d="M22.2021 1.09175C20.9471 1.69118 19.92 2.26217 19.92 2.36067C19.92 2.57298 19.8508 2.53609 25.0693 5.10593C31.7216 8.38155 36.1677 10.6284 36.4642 10.8641C36.6683 11.0261 36.7612 13.4928 36.8153 20.178C36.8558 25.1796 36.9691 29.3133 37.0667 29.3639C37.2909 29.48 40.6765 27.9233 41.2556 27.4378C41.6626 27.0966 41.6872 26.5541 41.6872 17.8688V8.66155L41.0435 8.23988C40.6896 8.00796 38.5366 6.90738 36.2594 5.79405C33.9821 4.68053 31.8229 3.5933 31.4613 3.37766C30.636 2.88555 24.7762 -0.00235315 24.6082 1.43901e-06C24.5401 0.00117873 23.4571 0.492307 22.2021 1.09175ZM9.15349 7.37634C4.58356 9.58082 0.668989 11.5604 0.45436 11.7757C0.15079 12.08 0.0597426 12.6008 0.0452312 14.1161C0.0349327 15.1883 0.129023 16.1185 0.254243 16.1835C0.379696 16.2484 1.72224 15.6925 3.23798 14.9481C7.13734 13.0332 16.7259 8.48496 17.4325 8.21496C17.9771 8.00698 18.5094 8.22988 24.063 10.9924C27.3843 12.6445 31.1971 14.5519 32.5361 15.2314C33.8751 15.9107 35.0601 16.4203 35.1692 16.3638C35.2783 16.3073 35.3677 15.2589 35.3677 14.0339V11.8071L32.9686 10.5876C23.3396 5.6934 18.4635 3.33626 17.9991 3.35117C17.704 3.36059 13.7234 5.17205 9.15349 7.37634ZM11.0259 12.8313C0.955005 17.6688 0.63271 17.8301 0.317906 18.1864C-0.105969 18.666 -0.105969 35.4948 0.317906 35.9459C0.646051 36.2954 4.08081 38.0641 4.43096 38.0641C4.55501 38.0641 4.72025 37.9244 4.79843 37.7537C4.8766 37.583 4.9405 33.6125 4.9405 28.9304V20.4174L7.10551 19.36C8.29638 18.7784 12.1932 16.9124 15.7656 15.2136C19.3379 13.5146 22.2606 12.0119 22.2606 11.8744C22.2606 11.612 18.4469 9.6077 17.9713 9.61987C17.8201 9.62379 14.6948 11.0689 11.0259 12.8313ZM43.2635 9.85807C43.202 9.99307 43.1435 14.0591 43.1336 18.8936C43.1238 23.7284 43.0585 27.8354 42.9883 28.0204C42.8813 28.3031 36.2922 31.5864 28.7254 35.1273C27.6801 35.6167 26.8247 36.14 26.8247 36.2903C26.8247 36.5167 30.7397 38.6527 31.1545 38.6527C31.2251 38.6527 32.5972 38.0266 34.2033 37.2612C35.8091 36.4959 39.3876 34.8138 42.1553 33.5231C44.923 32.2326 47.3469 31.0205 47.5414 30.83C47.8442 30.5335 47.906 29.1371 47.9688 21.1713C48.0385 12.3539 48.0195 11.8428 47.6149 11.5544C46.838 11.0004 44.0453 9.6128 43.7073 9.6128C43.525 9.6128 43.3253 9.72327 43.2635 9.85807ZM8.43494 20.1928L6.46186 21.1377L6.31487 23.8616C6.11148 27.6315 6.08269 35.0296 6.26268 37.3077L6.41224 39.2002L8.30949 40.1357C9.35291 40.6502 13.2911 42.6112 17.0608 44.4933C20.8307 46.3752 24.0958 47.9516 24.3165 47.9961C24.8322 48.0999 28.9312 46.0869 28.9312 45.7298C28.9312 45.5815 25.1343 43.5972 20.4937 41.3205C15.8531 39.0438 11.7719 37.0245 11.4241 36.8332L10.7919 36.4853V27.966C10.7919 23.2804 10.7055 19.402 10.6 19.3473C10.4944 19.2925 9.52002 19.673 8.43494 20.1928ZM12.6643 33.6447C12.6643 35.7687 12.6943 35.9122 13.1909 36.1686C13.4805 36.3184 15.9294 37.5261 18.6327 38.8527C21.3361 40.1791 25.2263 42.1047 27.2778 43.1317L31.0079 44.9991L31.8419 44.6063C42.0113 39.8157 47.7593 37.0028 47.8693 36.7626C48.1118 36.2326 47.7274 32.5471 47.436 32.6105C47.2905 32.6422 43.569 34.3756 39.1662 36.4626L31.1612 40.2568L22.1759 35.8249C17.234 33.3871 13.072 31.3927 12.9274 31.3927C12.7479 31.3927 12.6643 32.1085 12.6643 33.6447Z" fill="#F5CD76"/>
</g>
<path d="M55.667 34L63.091 13.7H67.267L74.691 34H70.747L69.123 29.302H61.206L59.553 34H55.667ZM62.221 26.402H68.108L65.15 17.963L62.221 26.402ZM77.306 34V13.7H85.455C87.5623 13.7 89.167 14.193 90.269 15.179C91.3903 16.1457 91.951 17.3927 91.951 18.92C91.951 20.196 91.603 21.2207 90.907 21.994C90.2303 22.748 89.399 23.2603 88.413 23.531C89.573 23.763 90.53 24.343 91.284 25.271C92.038 26.1797 92.415 27.243 92.415 28.461C92.415 30.0657 91.835 31.39 90.675 32.434C89.515 33.478 87.8717 34 85.745 34H77.306ZM81.018 22.226H84.904C85.948 22.226 86.7503 21.9843 87.311 21.501C87.8717 21.0177 88.152 20.3313 88.152 19.442C88.152 18.5913 87.8717 17.9243 87.311 17.441C86.7697 16.9383 85.948 16.687 84.846 16.687H81.018V22.226ZM81.018 30.984H85.165C86.267 30.984 87.1177 30.7327 87.717 30.23C88.3357 29.708 88.645 28.983 88.645 28.055C88.645 27.1077 88.326 26.3633 87.688 25.822C87.05 25.2807 86.1897 25.01 85.107 25.01H81.018V30.984ZM104.794 34.348C102.745 34.348 100.985 33.913 99.5159 33.043C98.0466 32.1537 96.9156 30.926 96.1229 29.36C95.3302 27.7747 94.9339 25.9477 94.9339 23.879C94.9339 21.8103 95.3302 19.9833 96.1229 18.398C96.9156 16.8127 98.0466 15.5753 99.5159 14.686C100.985 13.7967 102.745 13.352 104.794 13.352C107.23 13.352 109.221 13.961 110.768 15.179C112.334 16.3777 113.31 18.0693 113.697 20.254H109.608C109.357 19.152 108.815 18.2917 107.984 17.673C107.172 17.035 106.089 16.716 104.736 16.716C102.861 16.716 101.391 17.354 100.328 18.63C99.2646 19.906 98.7329 21.6557 98.7329 23.879C98.7329 26.1023 99.2646 27.852 100.328 29.128C101.391 30.3847 102.861 31.013 104.736 31.013C106.089 31.013 107.172 30.723 107.984 30.143C108.815 29.5437 109.357 28.722 109.608 27.678H113.697C113.31 29.766 112.334 31.3997 110.768 32.579C109.221 33.7583 107.23 34.348 104.794 34.348Z" fill="white"/>
<defs>
<clipPath id="clip0_1_18">
<rect width="48" height="48" fill="white"/>
</clipPath>
</defs>
</svg>
