<svg width="20" height="16" viewBox="0 0 20 16" fill="none" xmlns="http://www.w3.org/2000/svg">
<path d="M12.4692 0.061552C12.0954 0.144987 11.8682 0.223786 11.5465 0.381388C10.4912 0.895907 9.73886 1.80906 9.43602 2.94008C9.33192 3.34335 9.29406 4.10818 9.36031 4.51145L9.4029 4.73858L8.9581 4.71077C7.3871 4.60879 5.65522 4.05719 4.18833 3.18575C3.37918 2.70832 2.78769 2.24478 1.99273 1.47069C1.14571 0.640965 1.22143 0.659507 0.999026 1.21111C0.629937 2.15208 0.596814 3.00498 0.90912 3.86251C1.15045 4.52999 1.66149 5.25774 2.17727 5.67028L2.44699 5.8835H2.29557C2.02112 5.8835 1.42017 5.73981 1.05581 5.58221L0.68672 5.42924V5.66101C0.68672 6.47682 1.12679 7.46415 1.79399 8.14554C2.28611 8.65079 2.76876 8.95208 3.45489 9.17458L3.83344 9.29973L3.4265 9.35999C3.1899 9.39244 2.81608 9.41098 2.5369 9.39707C1.9738 9.36926 1.98799 9.32754 2.32869 9.96722C2.69778 10.6579 3.30347 11.2558 3.99906 11.6035C4.50537 11.8584 4.77036 11.9419 5.2956 12.016L5.71674 12.0763L5.5322 12.22C5.43283 12.2988 5.20569 12.4471 5.03061 12.5537C3.65836 13.3695 2.12995 13.7635 0.525835 13.7079C-0.174488 13.6801 -0.174488 13.6847 0.521103 14.0509C2.90125 15.3025 5.47068 15.7057 8.13948 15.2422C12.1758 14.5423 15.384 11.724 16.7042 7.733C17.0591 6.6576 17.2484 5.52195 17.2484 4.46973V3.85324L17.5229 3.65392C18.0292 3.27846 18.8194 2.45337 19.1648 1.92958L19.25 1.80443L19.0276 1.89713C18.5449 2.09645 17.1443 2.45801 17.0828 2.39775C17.0733 2.38848 17.2153 2.26796 17.3998 2.1289C17.9251 1.7349 18.4266 1.06278 18.6443 0.455552L18.7058 0.284047L18.1333 0.552895C17.5938 0.807837 16.9456 1.03497 16.4345 1.16012L16.2074 1.21111L15.9613 0.99325C15.4645 0.552895 14.8635 0.242329 14.2058 0.0893631C13.7563 -0.0172491 12.895 -0.0311546 12.4692 0.061552Z" fill="#112A46"/>
</svg>
